<?xml version="1.0" standalone="no"?>
<!DOCTYPE svg PUBLIC "-//W3C//DTD SVG 20010904//EN"
 "http://www.w3.org/TR/2001/REC-SVG-20010904/DTD/svg10.dtd">
<svg version="1.0" xmlns="http://www.w3.org/2000/svg"
 width="196.000000pt" height="196.000000pt" viewBox="0 0 196.000000 196.000000"
 preserveAspectRatio="xMidYMid meet">
<metadata>
Created by potrace 1.11, written by Peter Selinger 2001-2013
</metadata>
<g transform="translate(0.000000,196.000000) scale(0.100000,-0.100000)"
fill="#000000" stroke="none">
<path d="M585 1749 c-312 -82 -342 -91 -367 -119 l-28 -30 0 -645 0 -645 -95
0 -95 0 0 -110 0 -110 530 0 530 0 0 833 c0 814 -1 833 -20 865 -21 34 -55 53
-93 51 -12 0 -175 -41 -362 -90z m236 -713 c36 -59 14 -159 -38 -172 -60 -15
-103 29 -103 103 1 99 95 145 141 69z"/>
<path d="M1170 1511 l0 -110 128 0 c70 0 143 0 163 0 l37 -1 0 -637 c0 -351 1
-646 1 -655 1 -17 19 -18 231 -18 l230 0 0 110 0 110 -123 0 -122 0 -1 583 c0
320 -3 594 -7 609 -10 38 -55 88 -94 104 -24 10 -87 14 -238 14 l-205 0 0
-109z"/>
</g>
</svg>
